<svg xmlns="http://www.w3.org/2000/svg" width="1000" height="1000" version="1.0" viewBox="0 0 750 750"><defs><clipPath id="i"><path d="m447.422 230.383 208.371 208.37-353.07 353.075L94.352 583.457Zm0 0"/></clipPath><clipPath id="a"><path d="M340 190h102v506.77H340Zm0 0"/></clipPath><clipPath id="c"><path d="M413 41.922h75V198h-75Zm0 0"/></clipPath><clipPath id="d"><path d="M161.281 416H353v141H161.281Zm0 0"/></clipPath><clipPath id="e"><path d="M178 292h416v416H178Zm0 0"/></clipPath><clipPath id="f"><path d="m447.422 230.383 208.371 208.37-353.07 353.075L94.352 583.457Zm0 0"/></clipPath><clipPath id="g"><path d="m447.422 230.383 208.371 208.37-353.07 353.075L94.352 583.457Zm0 0"/></clipPath><clipPath id="h"><path d="M300 291h295v295H300Zm0 0"/></clipPath><clipPath id="b"><path d="M429 164h159.57v72H429Zm0 0"/></clipPath><clipPath id="j"><path d="m447.422 230.383 208.371 208.37-353.07 353.075L94.352 583.457Zm0 0"/></clipPath><clipPath id="k"><path d="M346 335h177v92H346Zm0 0"/></clipPath><clipPath id="l"><path d="m447.422 230.383 208.371 208.37-353.07 353.075L94.352 583.457Zm0 0"/></clipPath><clipPath id="m"><path d="m447.422 230.383 208.371 208.37-353.07 353.075L94.352 583.457Zm0 0"/></clipPath><clipPath id="n"><path d="M183 315h388v388H183Zm0 0"/></clipPath><clipPath id="o"><path d="m447.422 230.383 208.371 208.37-353.07 353.075L94.352 583.457Zm0 0"/></clipPath><clipPath id="p"><path d="m447.422 230.383 208.371 208.37-353.07 353.075L94.352 583.457Zm0 0"/></clipPath></defs><path fill="#fff" d="M-75-75h900v900H-75z"/><path fill="#fff" d="M-75-75h900v900H-75z"/><path fill="#252525" d="M-75-75h900v900H-75z"/><path fill="#c6d174" d="M383.559 189.281a7.76 7.76 0 0 1-.586 2.953 7.836 7.836 0 0 1-.715 1.336 7.671 7.671 0 0 1-3.46 2.84c-.47.195-.95.34-1.45.442a7.76 7.76 0 0 1-1.504.148 7.76 7.76 0 0 1-1.504-.148 7.853 7.853 0 0 1-1.45-.442 7.518 7.518 0 0 1-1.331-.71 7.834 7.834 0 0 1-2.129-2.129 7.836 7.836 0 0 1-.715-1.337 7.752 7.752 0 0 1 0-5.906c.195-.469.433-.914.715-1.336a7.834 7.834 0 0 1 2.129-2.129 7.853 7.853 0 0 1 2.781-1.152 7.76 7.76 0 0 1 1.504-.148c.508 0 1.008.05 1.504.148a7.763 7.763 0 0 1 3.953 2.113c.355.36.676.75.957 1.168.281.422.52.867.715 1.336a7.752 7.752 0 0 1 .586 2.953Zm0 0"/><path fill="#c6d174" d="M375.844 198.469c-1.102 0-1.836 0-2.938-.367-2.207-.735-4.043-2.207-5.144-4.41-1.102-2.208-1.102-4.778-.367-6.985 1.468-4.777 6.613-7.348 11.386-5.512 4.778 1.473 7.348 6.618 5.512 11.395-1.469 3.305-4.777 5.879-8.45 5.879Zm0-15.434c-2.57 0-5.145 1.836-5.88 4.41-.366 1.47-.366 3.305.368 4.778.734 1.468 2.207 2.57 3.676 3.304 3.305 1.102 6.98-.734 7.715-4.043 1.101-3.304-.735-6.98-4.043-7.714-.735-.368-1.47-.735-1.836-.735ZM394.578 469.668c0 .652-.062 1.297-.191 1.934a9.667 9.667 0 0 1-.563 1.863 9.913 9.913 0 0 1-.918 1.715 9.893 9.893 0 0 1-1.23 1.504 9.894 9.894 0 0 1-3.219 2.148 9.961 9.961 0 0 1-3.797.758 9.961 9.961 0 0 1-5.512-1.672c-.539-.363-1.039-.773-1.5-1.234a9.913 9.913 0 0 1-2.152-3.219 9.667 9.667 0 0 1-.562-1.863 9.718 9.718 0 0 1-.192-1.934c0-.652.063-1.297.192-1.938a9.713 9.713 0 0 1 .562-1.859c.25-.601.555-1.176.918-1.715a9.69 9.69 0 0 1 1.234-1.504 9.913 9.913 0 0 1 3.215-2.152 9.667 9.667 0 0 1 1.864-.563 9.718 9.718 0 0 1 1.933-.19c.652 0 1.297.062 1.934.19.64.125 1.261.313 1.863.563a9.913 9.913 0 0 1 4.45 3.656c.363.54.667 1.114.917 1.715.25.602.438 1.223.563 1.86.129.64.191 1.285.191 1.937Zm0 0"/><path fill="#c6d174" d="M384.66 481.059c-.734 0-1.469 0-2.203-.368-2.941-.734-5.512-2.203-7.348-4.777-1.836-2.57-2.57-5.512-1.836-8.82 1.102-6.246 6.98-10.656 13.59-9.188 2.942.739 5.512 2.207 7.348 4.778 1.836 2.574 2.574 5.515 1.836 8.82-.735 5.512-5.875 9.555-11.387 9.555Zm0-19.477c-4.039 0-7.348 2.941-7.715 6.617-.367 2.203 0 4.406 1.102 5.88 1.101 1.835 2.941 2.937 5.144 3.304 4.407.738 8.45-2.203 9.184-6.613.367-2.204 0-4.41-1.102-5.88-1.101-1.468-2.937-2.94-5.144-3.308h-1.469ZM418.824 431.816c0 .653-.062 1.297-.191 1.938a9.713 9.713 0 0 1-.563 1.86 9.773 9.773 0 0 1-.918 1.714 9.69 9.69 0 0 1-1.234 1.504 9.887 9.887 0 0 1-3.215 2.152 9.667 9.667 0 0 1-1.863.563 9.718 9.718 0 0 1-1.934.191 9.718 9.718 0 0 1-1.933-.191 9.667 9.667 0 0 1-1.864-.563 9.913 9.913 0 0 1-4.449-3.656 9.773 9.773 0 0 1-.918-1.715 9.713 9.713 0 0 1-.562-1.86 9.786 9.786 0 0 1-.192-1.937c0-.652.063-1.296.192-1.933.125-.64.312-1.262.562-1.863.25-.602.555-1.172.918-1.715a9.893 9.893 0 0 1 1.23-1.504c.462-.461.965-.871 1.505-1.235.543-.359 1.113-.668 1.714-.918a9.95 9.95 0 0 1 3.797-.753 9.95 9.95 0 0 1 3.797.754 9.887 9.887 0 0 1 3.215 2.152 9.913 9.913 0 0 1 2.152 3.219c.25.601.438 1.222.563 1.863.129.637.191 1.281.191 1.933Zm0 0"/><path fill="#c6d174" d="M408.906 443.578c-.734 0-1.469 0-2.203-.371-2.941-.734-5.512-2.203-7.348-4.777-1.835-2.57-2.57-5.512-1.835-8.817 1.101-6.25 6.976-10.656 13.59-9.187 2.94.734 5.511 2.203 7.347 4.777 1.836 2.57 2.57 5.512 1.836 8.82-.734 5.512-5.875 9.555-11.387 9.555Zm0-19.844c-4.043 0-7.347 2.938-7.715 6.614-.367 2.203 0 4.41 1.102 5.879 1.102 1.836 2.941 2.941 5.144 3.308 4.407.735 8.45-2.207 9.184-6.617.367-2.203 0-4.41-1.101-5.879-1.102-1.469-2.942-2.937-5.145-3.305h-1.469Zm0 0"/><g clip-path="url(#a)"><path fill="#448c56" d="M353.8 696.77c-4.038 0-7.343-3.31-7.343-7.352 0-45.2-1.84-87.457-3.309-128.25-6.246-151.766-11.02-271.2 86.329-368.578 2.941-2.942 7.347-2.942 10.289 0 2.937 2.937 2.937 7.347 0 10.289-92.575 92.605-88.168 203.582-81.922 357.555 1.836 40.793 3.304 83.05 3.304 128.984 0 4.043-3.304 7.352-7.347 7.352Zm0 0"/></g><path fill="#448c56" d="M541.89 334.8c-8.081-5.144-114.984-70.921-188.09 30.137h.74-.372c101.023 72.758 181.844-22.05 187.723-30.136h.367c0-.367 0 0-.367 0h.367Zm0 0"/><path fill="#448c56" d="M431.684 395.805c-26.82 0-53.637-9.555-79.352-27.93-.734-.367-1.102-.734-1.469-1.469-.734-1.101-.734-2.941 0-4.043 27.551-37.851 62.82-57.328 104.7-57.328 42.613 0 78.246 20.215 87.062 25.727h.367c1.836.367 2.938 1.836 2.938 3.672 0 1.472-.735 2.574-2.203 3.308-6.614 8.453-49.594 58.063-112.043 58.063Zm-72.739-31.973c23.88 16.54 48.125 24.988 72.739 24.988 55.101 0 94.777-41.156 104.695-52.914-11.387-6.617-43.348-23.152-80.817-23.152-38.207-.367-70.902 16.902-96.617 51.078ZM584.504 202.145c-5.512-5.145-79.719-72.762-152.453-4.41h.734-.367c68.695 72.757 146.574 10.288 152.086 4.41.367 0 .367.367 0 0 .367 0 .367 0 0 0Zm0 0"/><g clip-path="url(#b)"><path fill="#448c56" d="M506.625 235.582c-27.922 0-53.637-11.758-75.676-35.277-.734-.368-1.105-.735-1.472-1.47-.368-1.1 0-2.206.734-3.308 22.043-20.945 46.289-31.234 72.371-31.234 42.98 0 77.145 29.031 83.39 34.91 1.102.367 2.204 1.469 2.204 2.942 0 1.468-.735 2.57-2.203 2.937-5.512 4.777-37.84 30.5-79.348 30.5Zm-70.168-37.48c20.941 21.312 44.453 31.968 70.168 31.968 36.367 0 65.387-20.945 73.469-27.558-9.184-8.086-40.04-31.973-77.512-31.973-23.512 0-45.918 9.188-66.125 27.563Zm0 0"/></g><path fill="#448c56" d="M469.152 46.332c-6.246 4.41-87.43 63.207-35.265 148.461v-.367.367c85.226-52.918 39.675-141.48 35.265-148.461.368-.367.368-.367 0 0 0-.367.368-.367 0 0Zm0 0"/><g clip-path="url(#c)"><path fill="#448c56" d="M433.887 197.734c-1.102 0-1.836-.367-2.57-1.472-22.044-36.012-23.512-73.125-4.41-107.668 13.96-24.621 34.163-40.426 39.675-44.465 0-.371.367-.371.367-.371.367-.367.735-.735 1.102-.735v-.367c.367 0 .367-.367.734-.367s.735.367.735.367v-.734.367c.367 0 .734.367 1.101.734l.367.368c.367.367.735.738.735 1.105v.734c3.675 6.614 22.777 44.465 13.226 85.622-5.512 27.195-22.043 48.875-48.86 65.777-.366.738-1.1 1.105-1.835 1.105h-.367Zm34.531-146.992c-15.797 11.758-77.145 65.043-33.43 140.008 24.246-15.8 39.676-36.012 45.184-60.633 8.082-36.379-6.977-69.82-11.754-79.375Zm0 0"/></g><path fill="#448c56" d="M212.371 184.871c2.203 9.188 32.695 130.824 155.758 109.875l-.734-.367.367.367c-21.305-123.473-145.473-111.71-155.39-109.875-.368-.367-.368-.367 0 0-.368 0-.368-.367 0 0Zm0 0"/><path fill="#448c56" d="M340.21 299.523c-98.82 0-127.472-97.378-131.515-113.183-.367-.735-.734-1.102-.734-2.203v-.735c0-.367.367-.734.367-1.101.367-.371.367-.371.734-.738.368 0 .368-.368.735-.368s.734-.367 1.101-.367h1.473a136.85 136.85 0 0 1 17.266-1.101c36.367 0 123.062 11.023 141.062 113.183.367.735.367 1.469.367 2.203-.367 1.473-1.468 2.207-2.937 2.207-9.184 1.836-18.734 2.203-27.918 2.203ZM216.778 187.445c5.88 21.313 34.899 104.73 123.434 104.73 7.348 0 15.43 0 23.144-1.1-18.37-94.075-99.187-104.368-133.351-104.368-5.512 0-10.285.371-13.227.738ZM166.45 422.262c2.573 10.656 38.206 152.504 181.476 127.883l-.735-.368.368.368c-24.98-143.684-169.352-130.454-181.11-127.883l-.367-.367.367.367c-.367 0-.367-.367-.367-.367Zm0 0"/><g clip-path="url(#d)"><path fill="#448c56" d="M315.598 556.758c-114.985 0-148.047-113.551-152.82-132.29-.368-.366-.368-.734-.368-1.105-.734-.734-.734-1.101-.734-1.836 0-.367 0-.734.367-1.101 0-.367.367-.735.734-1.102.368-.367.368-1.105.735-1.472l.734-.735h1.102c.734 0 1.101 0 1.836.367 3.308-.367 10.656-1.101 20.207-1.101 42.246 0 142.902 12.863 164.207 131.191.367.735.734 2.203.367 2.938-.367 1.84-1.836 2.941-3.305 3.308-11.39 2.203-22.777 2.938-33.062 2.938ZM171.594 426.305c6.98 24.988 40.41 123.105 143.636 123.105 8.817 0 17.633-1.101 27.184-2.574C321.11 437.328 227.063 425.57 187.024 425.57c-6.614 0-11.758.368-15.43.735Zm0 0"/></g><path fill="#448c56" d="M534.543 484.734c-2.57 10.657-38.207 152.504-181.477 127.883l.735-.367-.367.367c24.98-143.683 169.722-130.457 181.109-127.883l.367-.367c.367 0 0 0-.367.367.367 0 .367-.367.367-.367Zm0 0"/><path fill="#448c56" d="M385.762 619.598c-10.653 0-21.672-1.102-33.063-2.938-1.836-.367-2.937-1.472-3.304-3.308-.368-1.102 0-2.204.367-2.942 21.304-118.328 121.96-131.187 164.207-131.187 9.554 0 16.898.734 20.207 1.101.734-.367 1.836 0 2.57 0 1.469.735 2.57 1.836 2.57 3.309 0 .734 0 1.469-.367 2.203 0 .367-.367.734-.367 1.101-4.773 18.743-38.203 132.66-152.82 132.66Zm-27.184-10.657c9.184 1.47 18.367 2.207 27.184 2.207 103.226 0 136.656-97.75 143.636-122.738-3.671-.367-8.816-.738-15.43-.738-40.038 0-134.081 11.762-155.39 121.27Zm0 0"/><path fill="#c6d174" d="M384.293 123.504c.367-7.352-1.836-16.906-9.184-16.906-7.347 0-9.918 9.554-9.55 16.906.734 12.86 3.671 26.09 8.816 38.215l3.305 4.41c3.675-14.332 5.879-28.293 6.613-42.625Zm0 0"/><path fill="#c6d174" d="M390.906 123.137c0-7.352-1.836-18.008-9.918-22.051-7.347-3.676-15.43.734-19.105 7.719-5.14 9.922-2.203 23.148 0 33.437 2.207 10.293 4.777 19.844 11.39 27.93 2.938 3.676 9.551 1.469 10.653-2.942 3.672-14.328 5.879-29.027 6.98-44.093.367-8.086-12.492-8.086-12.86.367-.733 13.594-2.937 27.191-5.874 40.789 3.672-1.102 7.344-1.836 10.652-2.941-4.777-6.247-6.613-14.7-8.082-22.047-1.101-5.145-3.676-13.23-2.203-18.375-.734-4.043 1.102-5.512 5.14-4.043.368 2.207.735 2.941.735 6.617-.734 6.98 12.492 6.98 12.492-.367ZM326.617 157.68c-4.773-2.942-9.918-8.086-7.347-12.864 2.94-4.777 10.289-2.207 15.062 1.102 8.082 5.879 15.063 13.23 20.941 21.312l1.47 4.043c-10.653-3.671-20.575-8.082-30.126-13.593Zm0 0"/><path fill="#c6d174" d="M329.191 153.637c-1.84-1.102-4.41-2.207-3.675-4.778.734-2.941 2.937-.734 4.777.368 3.672 2.203 6.977 5.511 10.285 8.453 4.406 4.406 9.55 9.183 11.387 15.066 2.203-2.207 4.043-4.043 6.246-6.25-10.285-3.305-19.836-7.715-29.02-12.86-5.511-3.308-10.656 5.512-5.144 8.45 9.918 5.516 20.203 10.293 31.226 13.965 3.672 1.101 7.344-2.57 6.243-6.246-2.204-6.246-5.875-11.024-10.653-15.801-5.879-6.246-13.222-13.598-21.304-16.168-6.247-1.84-12.86 0-15.063 6.613-2.574 7.715 4.04 13.965 9.918 17.637 5.145 3.309 9.918-5.145 4.777-8.45ZM473.195 423.363c6.977-3.672 17.633-5.511 21.305 1.473 3.309 7.348-5.14 14.332-12.855 17.27-13.594 5.144-27.922 7.718-42.247 8.453l-5.878-1.47c12.488-10.288 25.714-18.741 39.675-25.726Zm0 0"/><path fill="#c6d174" d="M476.867 429.613c4.778-2.207 15.797-2.574 6.613 3.305-5.144 3.676-12.492 5.144-18.367 6.617-9.55 2.203-20.207 4.777-29.758 2.203 1.102 4.043 2.204 8.086 3.31 11.762 11.753-9.188 24.608-17.273 38.202-23.887 8.082-4.043 1.102-16.539-7.347-12.129-14.696 7.72-28.286 16.54-41.145 26.461-4.406 3.305-1.469 10.657 3.309 11.758 10.285 2.57 20.57 1.102 31.222-1.101 11.758-2.207 26.82-5.512 34.903-15.067 5.507-6.617 6.609-16.172-.739-22.418-7.71-6.98-19.101-3.676-27.55.367-8.082 3.309-1.102 15.801 7.347 12.13ZM304.945 402.785c-2.574-4.043-29.39-37.848-70.168-42.625-40.777-4.777 15.43-98.117 69.801 40.422"/><path fill="#c6d174" d="M308.984 400.215c-10.285-15.8-27.918-28.664-44.816-36.383-6.246-2.937-12.86-5.144-19.84-6.613-4.039-1.102-9.918-.735-13.59-2.942-4.043-2.203-5.511-5.879-5.144-10.289 1.469-11.758 14.328-16.535 24.246-12.86 26.45 9.556 41.144 47.403 50.328 70.923 2.203 5.512 11.02 2.941 8.816-2.57-10.652-26.461-25.714-65.047-55.101-76.438-12.86-5.145-27.555-1.469-34.535 11.023-5.508 10.29-3.672 23.52 7.714 29.032 5.88 2.574 12.493 2.574 18.739 4.043 9.55 2.574 18.367 6.613 26.449 11.757 10.285 6.618 21.672 15.805 28.652 26.094 3.309 5.145 11.391.367 8.082-4.777ZM434.988 279.68c3.676-1.102 35.633-6.614 61.348 11.027 25.715 17.637 40.777-63.574-59.879-12.129"/><path fill="#c6d174" d="M436.09 282.988c12.125-3.308 26.816-1.836 38.574 1.469 9.55 2.574 18.367 11.762 28.285 12.496 8.817.735 15.063-7.351 16.164-15.8 1.102-10.66-6.246-19.11-16.164-22.051-22.41-6.614-48.492 6.613-67.594 16.535-4.039 2.207-.367 8.086 3.676 6.25 16.899-8.453 41.508-21.317 61.715-15.801 8.082 2.203 14.328 9.184 11.02 18.004-4.774 12.496-16.164 1.469-23.145-1.836-15.793-7.352-36.734-10.29-54-5.512-4.777.735-2.937 7.348 1.469 6.246Zm0 0"/><g clip-path="url(#e)"><g clip-path="url(#f)"><g clip-path="url(#g)"><path fill="#545454" d="M550.836 335.313c-57.004-57.004-149.742-57.02-206.73-.032-25.973 25.973-41.126 60.473-42.665 97.153-1.53 36.453 10.457 71.89 33.754 99.785l.63.75-.755.754c-.23-.274-.465-.543-.695-.817l-8.754 8.75c.23.274.469.543.7.817l-17.247 17.246-.543-.547c-.07-.07-.148-.133-.222-.2a12.59 12.59 0 0 0-15.7-1.355l.778.778c-.059.039-.121.07-.184.109l-.726.492-.782-.781a.54.54 0 0 0-.757 0 .535.535 0 0 0-.02.726l.707.805-.762.664-.68-.683c-.027-.024-.046-.055-.07-.082l-104.238 91.16c.176.074.34.183.484.324l.36.36-.653.57-.625-.278a.53.53 0 0 0-.597.106.519.519 0 0 0-.125.527l.191.656-.613.535-.207-.207a1.565 1.565 0 0 1-.399-.683l-.57.496c-5.488 4.8-5.77 13.246-.613 18.406l32.023 32.024c5.16 5.16 13.606 4.879 18.406-.614l.5-.57a1.54 1.54 0 0 1-.687-.398l-.207-.207.539-.61.652.192a.529.529 0 0 0 .637-.727l-.281-.621.57-.652.36.359c.144.14.25.305.328.48l91.156-104.238c-.027-.023-.059-.043-.082-.066l-.684-.684.664-.762.809.707a.53.53 0 0 0 .723-.02.54.54 0 0 0 0-.757l-.782-.777.493-.73c.039-.06.07-.126.109-.184l.777.777a12.595 12.595 0 0 0-1.351-15.7c-.07-.07-.133-.148-.203-.222l-.543-.543 17.242-17.246c.273.235.543.469.816.7l8.754-8.755c-.273-.226-.547-.464-.816-.695l.75-.754.75.63c27.894 23.296 63.336 35.284 99.789 33.753 36.676-1.539 71.176-16.691 97.148-42.664 56.988-56.988 56.973-149.727-.031-206.73ZM365.723 520.426c-45.094-45.098-45.106-118.465-.024-163.551 45.086-45.082 118.453-45.074 163.551.023 45.098 45.098 45.11 118.465.023 163.551-45.082 45.082-118.453 45.074-163.55-.023Zm-6.98-99.66a5.89 5.89 0 0 1-6.927 4.613 5.86 5.86 0 0 1-3-1.606 5.878 5.878 0 0 1-1.613-5.32 101.79 101.79 0 0 1 10.082-28.098 5.89 5.89 0 0 1 9.352-1.378c1.816 1.816 2.234 4.671 1.02 6.941a90.024 90.024 0 0 0-8.915 24.848Zm161.062-46.098a5.892 5.892 0 0 1-8.32 0c-12.094-12.094-27.25-20.48-43.84-24.254-30.57-6.96-62.036 2.098-84.172 24.234a5.892 5.892 0 0 1-8.32 0 5.89 5.89 0 0 1 0-8.324c25.011-25.012 60.562-35.25 95.105-27.387 18.75 4.27 35.883 13.747 49.543 27.41a5.888 5.888 0 0 1 .004 8.321Zm0 0"/></g></g></g><g clip-path="url(#h)"><g clip-path="url(#i)"><g clip-path="url(#j)"><path fill="#a6a6a6" d="M551.594 334.555c-57.512-57.512-150.746-57.528-208.242-.032-54.317 54.317-57.301 140.524-8.977 198.383a148.988 148.988 0 0 0 9.004 9.864 149.047 149.047 0 0 0 9.867 9.003c57.856 48.325 144.063 45.344 198.379-8.972 57.496-57.496 57.48-150.73-.031-208.246ZM360.375 525.773c-48.125-48.125-48.137-126.136-.023-174.25 48.109-48.109 126.12-48.097 174.246.028 48.125 48.125 48.136 126.137.027 174.25-48.11 48.11-126.125 48.097-174.25-.028Zm0 0"/></g></g></g><g clip-path="url(#k)"><g clip-path="url(#l)"><g clip-path="url(#m)"><path fill="#97e7dc" d="M359.79 420.977a6.948 6.948 0 0 1-8.185 5.449 6.905 6.905 0 0 1-3.546-1.895 6.956 6.956 0 0 1-1.907-6.289 103.008 103.008 0 0 1 10.188-28.39 6.955 6.955 0 0 1 9.414-2.844 6.954 6.954 0 0 1 2.848 9.414 88.985 88.985 0 0 0-8.813 24.555Zm160.769-55.387c-13.805-13.805-31.118-23.383-50.067-27.695-34.898-7.946-70.824 2.402-96.097 27.675a6.953 6.953 0 0 0 0 9.832c2.718 2.715 7.12 2.72 9.835 0 21.872-21.87 52.97-30.824 83.18-23.945 16.387 3.73 31.367 12.016 43.317 23.965a6.95 6.95 0 0 0 9.832.004 6.957 6.957 0 0 0 0-9.836Zm0 0"/></g></g></g><g clip-path="url(#n)"><g clip-path="url(#o)"><g clip-path="url(#p)"><path fill="#737373" d="m301.137 566.145 27.554 27.554c.625.625.625 1.64 0 2.27a1.605 1.605 0 0 1-2.187.066c-.027-.023-.059-.043-.082-.066l-27.555-27.555-8.683-8.687c-.028-.024-.047-.055-.07-.082a1.596 1.596 0 0 1 .07-2.184 1.6 1.6 0 0 1 2.27 0Zm-65.79 134.128a1.525 1.525 0 0 0-.327-.48l-48.66-48.664a1.574 1.574 0 0 0-.485-.324 1.592 1.592 0 0 0-2.184 1.91c.075.25.2.488.399.683l48.66 48.66c.2.2.434.329.688.399.542.16 1.152.031 1.582-.394.484-.485.59-1.2.328-1.79Zm299.278-174.472c-48.11 48.11-126.125 48.097-174.25-.028s-48.137-126.136-.023-174.25c48.109-48.109 126.12-48.097 174.246.028 48.125 48.125 48.136 126.137.027 174.25Zm-6.11-6.11c44.739-44.738 44.731-117.285-.023-162.035-44.75-44.75-117.297-44.761-162.035-.023s-44.727 117.285.023 162.035c44.754 44.754 117.297 44.762 162.036.023ZM327.18 577.84l17.312-17.313a148.989 148.989 0 0 1-9.863-9.004 150.1 150.1 0 0 1-9.008-9.867l-17.312 17.317c.074.066.152.129.222.199l18.446 18.445c.07.074.132.153.203.223Zm0 0"/></g></g></g></svg>